<?xml version="1.0" encoding="utf-8"?>
<!-- Generator: Adobe Illustrator 22.0.1, SVG Export Plug-In . SVG Version: 6.00 Build 0)  -->
<svg version="1.1" id="Layer_1" xmlns="http://www.w3.org/2000/svg" xmlns:xlink="http://www.w3.org/1999/xlink" x="0px" y="0px"
	 viewBox="0 0 152.2 131.8" style="enable-background:new 0 0 152.2 131.8;" xml:space="preserve">
<style type="text/css">
	.st0{fill-rule:evenodd;clip-rule:evenodd;fill:#FFFFFF;}
</style>
<path class="st0" d="M75.9,122.3l-16.2-8.9l4.4-10.5c-16.4-4.7-28.9-18.8-31.1-36.1h-8.9V56.2h8.9c2.4-19.5,18-35,37.5-37.4v0V9.9
	h10.6v8.9v0c19.6,2.4,35.1,17.9,37.5,37.4h8.9v10.6h-8.9c-2.1,17.3-14.6,31.5-31.1,36.1l4.4,10.5L75.9,122.3L75.9,122.3z M68.5,92.6
	l7.4-17.5l7.4,17.5l0,0c12.5-3,22.1-13.2,24.3-25.9h-7.8V56.2h7.8c-2.2-13.4-12.9-24-26.4-26.3v7.8H70.6l0-7.8
	c-13.5,2.2-24.1,12.9-26.4,26.3H52v10.6h-7.8C46.3,79.5,56,89.7,68.5,92.6L68.5,92.6L68.5,92.6z M69.1,61.5c0-3.7,3-6.8,6.8-6.8
	c3.8,0,6.8,3,6.8,6.8c0,3.7-3,6.8-6.8,6.8C72.1,68.3,69.1,65.2,69.1,61.5L69.1,61.5z"/>
</svg>
